<svg width="40" height="40" viewBox="0 0 40 40" fill="none" xmlns="http://www.w3.org/2000/svg">
<path opacity="0.5" fill-rule="evenodd" clip-rule="evenodd" d="M5 23.75C5.69035 23.75 6.25 24.3097 6.25 25C6.25 27.3923 6.25265 29.0608 6.42192 30.3198C6.58633 31.5428 6.88708 32.1903 7.34835 32.6517C7.80962 33.113 8.45725 33.4137 9.6802 33.5782C10.9391 33.7473 12.6077 33.75 15 33.75H25C27.3923 33.75 29.0608 33.7473 30.3198 33.5782C31.5428 33.4137 32.1903 33.113 32.6517 32.6517C33.113 32.1903 33.4137 31.5428 33.5782 30.3198C33.7473 29.0608 33.75 27.3923 33.75 25C33.75 24.3097 34.3097 23.75 35 23.75C35.6903 23.75 36.25 24.3097 36.25 25V25.0915C36.25 27.3708 36.25 29.208 36.0558 30.653C35.8542 32.1532 35.4227 33.4162 34.4195 34.4193C33.4162 35.4227 32.1532 35.8542 30.653 36.0558C29.208 36.25 27.3708 36.25 25.0915 36.25H14.9086C12.6292 36.25 10.792 36.25 9.34708 36.0558C7.8469 35.8542 6.58378 35.4227 5.58058 34.4195C4.57738 33.4162 4.1459 32.1532 3.9442 30.653C3.74993 29.208 3.74997 27.3708 3.75 25.0915C3.75 25.061 3.75 25.0305 3.75 25C3.75 24.3097 4.30965 23.75 5 23.75Z" fill="white"/>
<path fill-rule="evenodd" clip-rule="evenodd" d="M20 27.9167C20.351 27.9167 20.6857 27.7692 20.9225 27.5102L27.5892 20.2185C28.055 19.709 28.0197 18.9183 27.5102 18.4525C27.0007 17.9867 26.21 18.022 25.7442 18.5315L21.25 23.447V5C21.25 4.30965 20.6903 3.75 20 3.75C19.3097 3.75 18.75 4.30965 18.75 5V23.447L14.2559 18.5315C13.7901 18.022 12.9994 17.9867 12.4899 18.4525C11.9804 18.9183 11.945 19.709 12.4108 20.2185L19.0775 27.5102C19.3143 27.7692 19.649 27.9167 20 27.9167Z" fill="white"/>
</svg>
