<svg width="50" height="50" viewBox="0 0 50 50" fill="none" xmlns="http://www.w3.org/2000/svg">
<path d="M18.0361 48V41.4596L18.1227 36.8115C18.2267 35.3656 18.7936 34.0027 19.7262 32.9478C19.7398 32.9322 19.7536 32.9169 19.7674 32.9015C19.8034 32.8617 19.7797 32.7973 19.7262 32.7906C13.4942 32.0176 7.00129 29.4025 7.00129 18.0169C6.96066 15.2128 7.88123 12.4943 9.58267 10.3622C9.6422 10.2876 9.70265 10.2137 9.76408 10.1406C9.84403 10.0454 9.87018 9.9164 9.83356 9.79787C9.83133 9.79069 9.82911 9.78348 9.8269 9.77628C9.78537 9.64086 9.74639 9.5048 9.70998 9.36821C9.08453 7.021 9.21902 4.51372 10.0993 2.25091C10.1057 2.23419 10.1123 2.2175 10.1189 2.20082C10.1518 2.11753 10.2207 2.05387 10.3094 2.03816C10.862 1.94023 13.0952 1.8092 17.3705 4.74329C17.5036 4.8346 17.6386 4.9289 17.7756 5.02624C17.8746 5.09652 18.0004 5.11806 18.1174 5.08497L18.1285 5.08182C18.358 5.01699 18.5881 4.95548 18.8187 4.89723C22.8827 3.87133 27.1173 3.87133 31.1812 4.89723C31.4 4.95243 31.6181 5.01062 31.8359 5.07175L31.85 5.07577C31.9876 5.11451 32.1355 5.08921 32.2519 5.00669C32.3795 4.91625 32.5052 4.82846 32.6294 4.74329C36.8947 1.81539 39.1156 1.93969 39.6708 2.03754C39.761 2.05346 39.8315 2.11827 39.8654 2.20307C39.8698 2.21398 39.8739 2.22486 39.8783 2.23578C40.7734 4.49962 40.9156 7.01436 40.2897 9.36821C40.2524 9.50851 40.2123 9.64827 40.1696 9.78737C40.1311 9.91246 40.1588 10.0485 40.2429 10.149L40.2509 10.1585C40.3072 10.2257 40.3627 10.2936 40.4173 10.3622C42.1188 12.4943 43.0393 15.2128 42.9987 18.0169C42.9987 29.4646 36.4596 32.0112 30.1979 32.705C30.1616 32.7088 30.1454 32.752 30.1699 32.7789C30.1791 32.7891 30.1886 32.7993 30.1979 32.8095C30.8297 33.509 31.3198 34.339 31.6371 35.2485C31.9688 36.1995 32.1038 37.2148 32.0331 38.226V48" stroke="white" stroke-width="3" stroke-linecap="round" stroke-linejoin="round"/>
<path d="M8.33334 35.4167C9.10241 35.5257 9.83666 35.809 10.4805 36.2449C11.1244 36.6809 11.661 37.258 12.0496 37.933C12.3798 38.5338 12.825 39.0634 13.3597 39.4911C13.8943 39.9188 14.5079 40.2365 15.1652 40.4257C15.8225 40.6151 16.5105 40.6722 17.1898 40.5938C17.8692 40.5157 18.5264 40.3036 19.1239 39.9699" stroke="white" stroke-width="3" stroke-linecap="round" stroke-linejoin="round"/>
</svg>
