<svg width="50" height="50" viewBox="0 0 50 50" fill="none" xmlns="http://www.w3.org/2000/svg">
<path d="M25 47C20.2827 47 16.888 46.9977 14.2413 46.741C11.625 46.4873 9.95133 46 8.61567 45.1607C7.08909 44.2016 5.79823 42.9108 4.839 41.3843C4 40.0487 3.51233 38.375 3.259 35.7587C3.00233 33.112 3 29.7173 3 25C3 20.2827 3.00233 16.888 3.259 14.2413C3.51233 11.625 4 9.95133 4.839 8.61567C5.79819 7.08905 7.08905 5.79819 8.61567 4.839C9.95133 4 11.625 3.51233 14.2413 3.259C16.8877 3.00233 20.2823 3 25 3C29.7173 3 33.112 3.00233 35.7587 3.259C38.375 3.51233 40.0487 4 41.3843 4.839C42.9108 5.79823 44.2016 7.08909 45.1607 8.61567C46 9.95133 46.4873 11.625 46.741 14.2413C46.9977 16.888 47 20.2827 47 25C47 29.7173 46.9977 33.112 46.741 35.7587C46.4873 38.375 46 40.0487 45.1607 41.3843C44.2015 42.9108 42.9108 44.2015 41.3843 45.1607C40.0487 46 38.375 46.4873 35.7587 46.741C33.112 46.9977 29.7173 47 25 47Z" stroke="white" stroke-width="4"/>
<path d="M25 35C30.5228 35 35 30.5228 35 25C35 19.4772 30.5228 15 25 15C19.4772 15 15 19.4772 15 25C15 30.5228 19.4772 35 25 35Z" stroke="white" stroke-width="4"/>
<path d="M38 15C39.6569 15 41 13.6569 41 12C41 10.3431 39.6569 9 38 9C36.3431 9 35 10.3431 35 12C35 13.6569 36.3431 15 38 15Z" fill="white"/>
</svg>
