<?xml version="1.0" encoding="utf-8"?>

<!-- Uploaded to: SVG Repo, www.svgrepo.com, Generator: SVG Repo Mixer Tools -->
<svg version="1.1" id="Icons" xmlns="http://www.w3.org/2000/svg" xmlns:xlink="http://www.w3.org/1999/xlink" 
	 viewBox="0 0 32 32" xml:space="preserve">
<style type="text/css">
	.st0{fill:none;stroke:#000000;stroke-width:2;stroke-linecap:round;stroke-linejoin:round;stroke-miterlimit:10;}
</style>
<path d="M19,8c0.6,0,1-0.4,1-1V5c0-1.7-1.3-3-3-3H7C5.3,2,4,3.3,4,5v22c0,1.7,1.3,3,3,3h10c1.7,0,3-1.3,3-3v-4c0-0.6-0.4-1-1-1H6V8
	H19z M11,25h2c0.6,0,1,0.4,1,1s-0.4,1-1,1h-2c-0.6,0-1-0.4-1-1S10.4,25,11,25z"/>
<g>
	<path d="M14,19c-0.3,0-0.5-0.1-0.7-0.3l-3-3c-0.4-0.4-0.4-1,0-1.4l3-3c0.4-0.4,1-0.4,1.4,0s0.4,1,0,1.4L12.4,15l2.3,2.3
		c0.4,0.4,0.4,1,0,1.4C14.5,18.9,14.3,19,14,19z"/>
</g>
<g>
	<path d="M24,19c-0.3,0-0.5-0.1-0.7-0.3c-0.4-0.4-0.4-1,0-1.4l2.3-2.3l-2.3-2.3c-0.4-0.4-0.4-1,0-1.4s1-0.4,1.4,0l3,3
		c0.4,0.4,0.4,1,0,1.4l-3,3C24.5,18.9,24.3,19,24,19z"/>
</g>
<g>
	<path d="M17,20c-0.1,0-0.3,0-0.4-0.1c-0.5-0.2-0.7-0.8-0.4-1.3l4-8c0.2-0.5,0.8-0.7,1.3-0.4c0.5,0.2,0.7,0.8,0.4,1.3l-4,8
		C17.7,19.8,17.4,20,17,20z"/>
</g>
</svg>