<svg width="50" height="50" viewBox="0 0 50 50" fill="none" xmlns="http://www.w3.org/2000/svg">
<path d="M44.8503 15.0868C44.8503 15.5106 44.8503 15.9593 44.8503 16.3831C44.8739 20.1475 44.1367 23.8791 42.6816 27.3615C41.2263 30.8438 39.0822 34.0076 36.3732 36.6695C33.6641 39.3315 30.4445 41.4384 26.9006 42.8684C23.3567 44.2983 19.559 45.0226 15.728 44.9995C10.1526 45.0154 4.69104 43.4487 0 40.4876C0.837138 40.4876 1.62354 40.4876 2.53678 40.4876C7.13713 40.4876 11.6041 38.9691 15.2207 36.1752C13.077 36.1563 10.9944 35.4708 9.27168 34.2169C7.54901 32.9631 6.27473 31.2052 5.63166 29.1956C6.27765 29.2968 6.93084 29.3469 7.58498 29.3452C8.49099 29.3387 9.39325 29.23 10.274 29.0211C7.98201 28.5615 5.92209 27.3378 4.44282 25.557C2.96354 23.7764 2.15581 21.5482 2.15626 19.2497C3.57455 20.0184 5.15492 20.4536 6.77321 20.521C5.3453 19.5928 4.17539 18.3296 3.36925 16.8454C2.56314 15.3613 2.14624 13.7031 2.15626 12.0208C2.15944 10.2696 2.63191 8.55014 3.52613 7.03536C6.09267 10.1454 9.29538 12.691 12.9268 14.5074C16.5583 16.3238 20.5376 17.3705 24.6068 17.5796C24.4457 16.8252 24.3607 16.057 24.3531 15.2863C24.2869 13.2345 24.8671 11.2126 26.014 9.4968C27.1611 7.78098 28.8189 6.45488 30.7616 5.69951C32.704 4.94417 34.8366 4.7964 36.8678 5.2764C38.899 5.7564 40.7298 6.84078 42.1106 8.38143C44.4064 7.92828 46.6043 7.08472 48.6048 5.88871C47.8407 8.21482 46.2339 10.1841 44.0893 11.4225C46.1281 11.2061 48.1213 10.6849 50 9.87706C48.6088 11.8736 46.8952 13.6334 44.9264 15.0868H44.8503Z" fill="white"/>
</svg>
