<?xml version="1.0" encoding="iso-8859-1"?>
<!-- Generator: Adobe Illustrator 16.0.0, SVG Export Plug-In . SVG Version: 6.00 Build 0)  -->
<!DOCTYPE svg PUBLIC "-//W3C//DTD SVG 1.1//EN" "http://www.w3.org/Graphics/SVG/1.1/DTD/svg11.dtd">
<svg version="1.1" id="Capa_1" xmlns="http://www.w3.org/2000/svg" xmlns:xlink="http://www.w3.org/1999/xlink" x="0px" y="0px"
	 width="46.354px" height="46.354px" viewBox="0 0 46.354 46.354" style="enable-background:new 0 0 46.354 46.354;"
	 xml:space="preserve">
<g>
	<g>
		<path d="M43.978,0.542c-0.646-0.57-1.569-0.703-2.35-0.339l-8.29,3.862c-2.01,0.936-3.805,2.278-5.271,3.94l-8.603,9.757
			c-5.206-1.243-10.911,0.354-14.699,4.65c-1.433,1.625-2.448,3.476-3.054,5.418c-0.159,0.508-0.047,1.062,0.296,1.468
			c0.343,0.407,0.87,0.61,1.397,0.54c4.061-0.538,8.322,0.608,11.636,3.53s4.986,7.006,4.96,11.104
			c-0.003,0.531,0.265,1.027,0.711,1.316s1.01,0.331,1.494,0.11c1.851-0.845,3.559-2.083,4.99-3.709
			c3.788-4.296,4.657-10.156,2.771-15.167l8.6-9.755c1.467-1.664,2.575-3.614,3.251-5.728l2.79-8.709
			C44.872,2.01,44.624,1.112,43.978,0.542z M36.668,14.68c-1.41,1.6-3.85,1.753-5.449,0.343c-1.599-1.41-1.752-3.85-0.343-5.449
			c1.411-1.6,3.85-1.753,5.449-0.343C37.926,10.641,38.078,13.081,36.668,14.68z"/>
		<path d="M11.468,32.885c-0.828-0.73-2.092-0.65-2.823,0.177l-5.291,6c-0.73,0.829-0.651,2.092,0.177,2.823
			c0.38,0.335,0.852,0.5,1.322,0.5c0.554,0,1.106-0.229,1.501-0.678l5.291-6C12.376,34.878,12.297,33.614,11.468,32.885z"/>
		<path d="M13.146,37.029L7.855,43.03c-0.73,0.829-0.651,2.092,0.177,2.823c0.38,0.335,0.852,0.5,1.322,0.5
			c0.554,0,1.106-0.229,1.501-0.677l5.291-6.001c0.73-0.829,0.651-2.093-0.177-2.823C15.14,36.121,13.876,36.202,13.146,37.029z"/>
	</g>
</g>
<g>
</g>
<g>
</g>
<g>
</g>
<g>
</g>
<g>
</g>
<g>
</g>
<g>
</g>
<g>
</g>
<g>
</g>
<g>
</g>
<g>
</g>
<g>
</g>
<g>
</g>
<g>
</g>
<g>
</g>
</svg>
